<?xml version="1.0" encoding="UTF-8"?>
<svg width="163px" height="47px" viewBox="0 0 163 47" version="1.1" xmlns="http://www.w3.org/2000/svg" xmlns:xlink="http://www.w3.org/1999/xlink">
    <!-- Generator: Sketch 52.2 (67145) - http://www.bohemiancoding.com/sketch -->
    <title>Zenno Astronautics Copy 2</title>
    <desc>Created with Sketch.</desc>
    <g id="Page-1" stroke="none" stroke-width="1" fill="none" fill-rule="evenodd">
        <path d="M1.62443647,18.6196213 L1.62443647,14.9752027 L11.2561143,4.30226241 L11.2561143,4.04194679 L1.88475209,4.04194679 L1.88475209,0.39752815 L16.3322688,0.39752815 L16.3322688,4.04194679 L6.700591,14.7148871 L6.700591,14.9752027 L16.5925845,14.9752027 L16.5925845,18.6196213 L1.62443647,18.6196213 Z M18.1544782,11.9815731 C18.1544782,8.07683885 21.252234,4.95305145 25.3131576,4.95305145 C29.4782075,4.95305145 32.3416793,8.10287041 32.3416793,11.9815731 L32.3416793,12.76252 L21.9290546,12.76252 C22.2154018,14.4545715 23.6211061,15.8863074 25.3131576,15.8863074 C26.4845779,15.8863074 27.1874301,15.4958339 27.6820297,15.1053605 C27.9423454,14.8710765 28.1505978,14.6107608 28.3067872,14.3244137 L32.2115215,14.3244137 C31.9251743,15.1834552 31.5086693,15.964402 30.9099434,16.6672542 C29.8686809,17.8386745 28.1766294,19.0100948 25.3131576,19.0100948 C21.252234,19.0100948 18.1544782,15.8863074 18.1544782,11.9815731 Z M22.0592124,10.5498372 L28.436945,10.5498372 C28.1766294,9.24825913 27.0052091,8.07683885 25.3131576,8.07683885 C23.6211061,8.07683885 22.4496858,9.22222757 22.0592124,10.5498372 Z M34.554362,18.6196213 L34.554362,5.34352487 L38.1987807,5.34352487 L38.1987807,7.16573419 L38.3289385,7.16573419 C38.5632225,6.74922921 38.9016328,6.38478734 39.2921063,6.0724086 C39.9949584,5.52574581 40.9581262,4.95305145 42.4939883,4.95305145 C45.7479336,4.95305145 47.7003007,6.87938701 47.7003007,10.5498372 L47.7003007,18.6196213 L44.055882,18.6196213 L44.055882,11.0704684 C44.055882,9.09206976 43.0146196,8.07683885 41.3225681,8.07683885 C39.6305166,8.07683885 38.1987807,9.50857475 38.1987807,11.5910997 L38.1987807,18.6196213 L34.554362,18.6196213 Z M50.4336147,18.6196213 L50.4336147,5.34352487 L54.0780333,5.34352487 L54.0780333,7.16573419 L54.2081911,7.16573419 C54.4424752,6.74922921 54.7808855,6.38478734 55.1713589,6.0724086 C55.8742111,5.52574581 56.8373788,4.95305145 58.373241,4.95305145 C61.6271862,4.95305145 63.5795533,6.87938701 63.5795533,10.5498372 L63.5795533,18.6196213 L59.9351347,18.6196213 L59.9351347,11.0704684 C59.9351347,9.09206976 58.8938722,8.07683885 57.2018207,8.07683885 C55.5097692,8.07683885 54.0780333,9.50857475 54.0780333,11.5910997 L54.0780333,18.6196213 L50.4336147,18.6196213 Z M65.5319205,11.9815731 C65.5319205,8.07683885 68.6296763,4.95305145 72.8207577,4.95305145 C76.959776,4.95305145 80.109595,8.07683885 80.109595,11.9815731 C80.109595,15.8863074 76.959776,19.0100948 72.8207577,19.0100948 C68.6296763,19.0100948 65.5319205,15.8863074 65.5319205,11.9815731 Z M69.3064969,11.9815731 C69.3064969,14.3244137 70.8683906,15.8863074 72.8207577,15.8863074 C74.7731249,15.8863074 76.3350186,14.3244137 76.3350186,11.9815731 C76.3350186,9.63873256 74.7731249,8.07683885 72.8207577,8.07683885 C70.8683906,8.07683885 69.3064969,9.63873256 69.3064969,11.9815731 Z M0.843489621,46.6035502 L5.65932854,28.381457 L13.8592705,28.381457 L18.6751094,46.6035502 L14.6402173,46.6035502 L13.5989549,42.5686581 L5.91964415,42.5686581 L4.87838169,46.6035502 L0.843489621,46.6035502 Z M6.83074881,38.9242395 L12.6878502,38.9242395 L10.8656409,32.0258756 L8.65295813,32.0258756 L6.83074881,38.9242395 Z M19.3258984,42.3083425 L23.1004749,42.3083425 C23.2306327,42.6467528 23.4388852,42.9331 23.6731692,43.167384 C24.0896742,43.583889 24.7925264,44.000394 25.9639467,44.000394 C27.6559982,44.000394 28.1766294,43.5057943 28.1766294,42.6988159 C28.1766294,41.7356481 26.0941045,41.449301 24.0896742,41.0067644 C22.0331808,40.5642279 19.9766875,39.4969338 19.9766875,36.9718723 C19.9766875,34.8893474 21.9290546,32.9369803 25.5734732,32.9369803 C28.3588503,32.9369803 29.9467756,34.0303059 30.8058171,35.0975999 C31.3004168,35.7223574 31.6388271,36.4252095 31.821048,37.232188 L28.1766294,37.232188 C28.0725032,36.9979039 27.9163138,36.7636198 27.7080613,36.5813989 C27.3175879,36.2690202 26.6928304,35.9306099 25.5734732,35.9306099 C24.2458636,35.9306099 23.7512639,36.4512411 23.7512639,36.9718723 C23.7512639,37.9350401 25.8077573,38.2213873 27.8642507,38.6639239 C29.8686809,39.1064604 31.9512059,40.1737544 31.9512059,42.6988159 C31.9512059,44.8854671 29.8426494,46.9940236 25.9639467,46.9940236 C23.1265064,46.9940236 21.4084234,45.8486349 20.4973187,44.651183 C19.9506559,43.9483309 19.5601825,43.167384 19.3258984,42.3083425 Z M32.9924683,36.4512411 L32.9924683,33.3274537 L34.6845198,33.3274537 L34.6845198,30.4639819 L38.3289385,30.4639819 L38.3289385,33.3274537 L42.0774834,33.3274537 L42.0774834,36.4512411 L38.3289385,36.4512411 L38.3289385,43.4797628 L42.2336727,43.4797628 L42.2336727,46.6035502 L34.6845198,46.6035502 L34.6845198,36.4512411 L32.9924683,36.4512411 Z M44.3161977,46.6035502 L44.3161977,33.3274537 L47.9606163,33.3274537 L47.9606163,35.2798208 L48.0907741,35.2798208 C48.2469635,34.8633158 48.4812475,34.498874 48.7936263,34.1864952 C49.3142575,33.6398324 50.1472675,33.0671381 51.4748771,33.0671381 L53.0367708,33.0671381 L53.0367708,36.5813989 L51.0844037,36.5813989 C49.106005,36.5813989 47.9606163,37.7267876 47.9606163,39.5750285 L47.9606163,46.6035502 L44.3161977,46.6035502 Z M54.0780333,39.9655019 C54.0780333,36.0607677 57.1757891,32.9369803 61.3668706,32.9369803 C65.5058889,32.9369803 68.6557079,36.0607677 68.6557079,39.9655019 C68.6557079,43.8702362 65.5058889,46.9940236 61.3668706,46.9940236 C57.1757891,46.9940236 54.0780333,43.8702362 54.0780333,39.9655019 Z M57.8526098,39.9655019 C57.8526098,42.3083425 59.4145035,43.8702362 61.3668706,43.8702362 C63.3192377,43.8702362 64.8811314,42.3083425 64.8811314,39.9655019 C64.8811314,37.6226614 63.3192377,36.0607677 61.3668706,36.0607677 C59.4145035,36.0607677 57.8526098,37.6226614 57.8526098,39.9655019 Z M70.7382328,46.6035502 L70.7382328,33.3274537 L74.3826514,33.3274537 L74.3826514,35.149663 L74.5128092,35.149663 C74.7470933,34.733158 75.0855036,34.3687162 75.475977,34.0563374 C76.1788292,33.5096746 77.141997,32.9369803 78.6778591,32.9369803 C81.9318043,32.9369803 83.8841715,34.8633158 83.8841715,38.533766 L83.8841715,46.6035502 L80.2397528,46.6035502 L80.2397528,39.0543973 C80.2397528,37.0759986 79.1984903,36.0607677 77.5064388,36.0607677 C75.8143873,36.0607677 74.3826514,37.4925036 74.3826514,39.5750285 L74.3826514,46.6035502 L70.7382328,46.6035502 Z M85.9666964,39.9655019 C85.9666964,35.6702943 88.7000104,32.9369803 92.0841134,32.9369803 C93.5418808,32.9369803 94.5310802,33.4576115 95.2339324,33.9782427 C95.6244058,34.2906215 95.9628161,34.6290318 96.2491633,35.0195052 L96.3793211,35.0195052 L96.3793211,33.3274537 L100.02374,33.3274537 L100.02374,46.6035502 L96.3793211,46.6035502 L96.3793211,44.9114987 L96.2491633,44.9114987 C95.9628161,45.3019721 95.6244058,45.6403824 95.2339324,45.9527611 C94.5310802,46.4733924 93.5418808,46.9940236 92.0841134,46.9940236 C88.7000104,46.9940236 85.9666964,44.2607096 85.9666964,39.9655019 Z M89.7412728,39.9655019 C89.7412728,42.4645319 91.1469772,43.8702362 92.995218,43.8702362 C94.9736167,43.8702362 96.3793211,42.4645319 96.3793211,39.9655019 C96.3793211,37.466472 94.9736167,36.0607677 92.995218,36.0607677 C91.1469772,36.0607677 89.7412728,37.466472 89.7412728,39.9655019 Z M102.887211,41.3972378 L102.887211,33.3274537 L106.53163,33.3274537 L106.53163,40.8766066 C106.53163,42.8550053 107.572893,43.8702362 109.264944,43.8702362 C110.956996,43.8702362 112.388732,42.4385003 112.388732,40.3559754 L112.388732,33.3274537 L116.03315,33.3274537 L116.03315,46.6035502 L112.388732,46.6035502 L112.388732,44.7813409 L112.258574,44.7813409 C112.02429,45.2238774 111.685879,45.5883193 111.295406,45.900698 C110.592554,46.4473608 109.577323,46.9940236 108.093524,46.9940236 C104.839579,46.9940236 102.887211,45.067688 102.887211,41.3972378 Z M117.855359,36.4512411 L117.855359,33.3274537 L119.547411,33.3274537 L119.547411,30.4639819 L123.19183,30.4639819 L123.19183,33.3274537 L126.940375,33.3274537 L126.940375,36.4512411 L123.19183,36.4512411 L123.19183,43.4797628 L127.096564,43.4797628 L127.096564,46.6035502 L119.547411,46.6035502 L119.547411,36.4512411 L117.855359,36.4512411 Z M128.918773,29.6830351 C128.918773,28.6417726 129.829878,27.7306679 131.001298,27.7306679 C132.172718,27.7306679 133.083823,28.6417726 133.083823,29.6830351 C133.083823,30.7242975 132.172718,31.6354022 131.001298,31.6354022 C129.829878,31.6354022 128.918773,30.7242975 128.918773,29.6830351 Z M129.179089,46.6035502 L129.179089,33.3274537 L132.823507,33.3274537 L132.823507,46.6035502 L129.179089,46.6035502 Z M134.906032,39.9655019 C134.906032,36.0607677 138.003788,32.9369803 142.064712,32.9369803 C144.902152,32.9369803 146.620235,34.2125268 147.583403,35.5401364 C148.156097,36.2950517 148.572602,37.1801248 148.832918,38.1432926 L145.058341,38.1432926 C144.902152,37.7528192 144.6939,37.4144089 144.433584,37.1020302 C143.938984,36.5813989 143.236132,36.0607677 142.064712,36.0607677 C140.268534,36.0607677 138.680609,37.6226614 138.680609,39.9655019 C138.680609,42.3083425 140.268534,43.8702362 142.064712,43.8702362 C143.236132,43.8702362 143.938984,43.349605 144.433584,42.8289737 C144.6939,42.516595 144.902152,42.1781847 145.058341,41.7877113 L148.832918,41.7877113 C148.598634,42.750879 148.20816,43.6359521 147.635466,44.3908674 C146.672298,45.7184771 144.980247,46.9940236 142.064712,46.9940236 C138.003788,46.9940236 134.906032,43.8702362 134.906032,39.9655019 Z M150.004338,42.3083425 L153.778915,42.3083425 C153.909072,42.6467528 154.117325,42.9331 154.351609,43.167384 C154.768114,43.583889 155.470966,44.000394 156.642386,44.000394 C158.334438,44.000394 158.855069,43.5057943 158.855069,42.6988159 C158.855069,41.7356481 156.772544,41.449301 154.768114,41.0067644 C152.711621,40.5642279 150.655127,39.4969338 150.655127,36.9718723 C150.655127,34.8893474 152.607494,32.9369803 156.251913,32.9369803 C159.03729,32.9369803 160.625215,34.0303059 161.484257,35.0975999 C161.978857,35.7223574 162.317267,36.4252095 162.499488,37.232188 L158.855069,37.232188 C158.750943,36.9979039 158.594754,36.7636198 158.386501,36.5813989 C157.996028,36.2690202 157.37127,35.9306099 156.251913,35.9306099 C154.924303,35.9306099 154.429704,36.4512411 154.429704,36.9718723 C154.429704,37.9350401 156.486197,38.2213873 158.54269,38.6639239 C160.547121,39.1064604 162.629646,40.1737544 162.629646,42.6988159 C162.629646,44.8854671 160.521089,46.9940236 156.642386,46.9940236 C153.804946,46.9940236 152.086863,45.8486349 151.175758,44.651183 C150.629096,43.9483309 150.238622,43.167384 150.004338,42.3083425 Z" id="Zenno-Astronautics-Copy-2" fill="#FFFFFF"></path>
    </g>
</svg>